name analog
datacolumns 19
datarows 32
range 0.0 0.0155
endheader
time	ground_force_vx	ground_force_vy	ground_force_vz	ground_force_px	ground_force_py	ground_force_pz	l_ground_force_vx	l_ground_force_vy	l_ground_force_vz	l_ground_force_px	l_ground_force_py	l_ground_force_pz	ground_torque_x	ground_torque_y	ground_torque_z	l_ground_torque_x	l_ground_torque_y	l_ground_torque_z
0.0	-0.0	-0.0	-0.0	-16.120046615600586	20.2334041595459	-181.18130493164065	8.841461181640625	-30.14704322814941	-314.1199035644531	-0.0	-0.0	-0.0	-0.0	-0.0	-0.0	91585.5703125	-31232.197265625	5881.9208984375
0.0005	-0.0	-0.0	-0.0	-16.05879020690918	20.498199462890625	-181.0683135986328	8.486602783203125	-30.35320472717285	-314.8183288574219	-0.0	-0.0	-0.0	-0.0	-0.0	-0.0	91509.6015625	-30631.013671875	5654.27978515625
0.001	-0.0	-0.0	-0.0	-15.46491813659668	20.14452743530273	-181.77133178710935	7.628902912139893	-30.353256225585938	-314.2364501953125	-0.0	-0.0	-0.0	-0.0	-0.0	-0.0	91707.125	-29961.220703125	5505.27685546875
0.0015	-0.0	-0.0	-0.0	-14.481450080871582	20.52814483642578	-182.710205078125	7.18579626083374	-30.29433822631836	-314.2373352050781	-0.0	-0.0	-0.0	-0.0	-0.0	-0.0	91330.0859375	-29520.513671875	5337.01708984375
0.002	-0.0	-0.0	-0.0	-13.709091186523438	20.79668426513672	-186.01458740234372	6.209472179412842	-30.23480033874512	-314.00555419921875	-0.0	-0.0	-0.0	-0.0	-0.0	-0.0	91546.46875	-29012.21875	5099.140625
0.0025	-0.0	-0.0	-0.0	-12.550861358642578	20.97774887084961	-186.24734497070312	5.351073741912842	-30.235782623291016	-314.3560485839844	-0.0	-0.0	-0.0	-0.0	-0.0	-0.0	91304.2265625	-28186.826171875	4900.689453125
0.003	-0.0	-0.0	-0.0	-11.271283149719238	20.976375579833984	-187.7699432373047	5.086475372314453	-30.206016540527344	-312.49072265625	-0.0	-0.0	-0.0	-0.0	-0.0	-0.0	91081.2421875	-27620.591796875	4702.900390625
0.0035	-0.0	-0.0	-0.0	-10.23160457611084	21.062355041503903	-188.1166229248047	3.991985321044922	-30.324857711791992	-313.073486328125	-0.0	-0.0	-0.0	-0.0	-0.0	-0.0	90911.9765625	-27293.4765625	4325.65185546875
0.004	-0.0	-0.0	-0.0	-9.19049072265625	21.80784034729004	-190.34967041015625	3.696568489074707	-30.793405532836918	-312.2635498046875	-0.0	-0.0	-0.0	-0.0	-0.0	-0.0	90585.8671875	-26650.0234375	4157.85205078125
0.0045000000000000005	-0.0	-0.0	-0.0	-8.686271667480469	22.164382934570312	-192.82144165039065	3.223790407180786	-30.38265991210937	-311.7998962402344	-0.0	-0.0	-0.0	-0.0	-0.0	-0.0	90364.765625	-25959.03125	3840.801513671875
0.005	-0.0	-0.0	-0.0	-8.2675199508667	22.57902336120605	-196.59811401367188	2.4839019775390625	-30.44190788269043	-310.6213073730469	-0.0	-0.0	-0.0	-0.0	-0.0	-0.0	89860.8046875	-25612.220703125	3682.879638671875
0.0055	-0.0	-0.0	-0.0	-7.197036266326904	22.48768615722656	-198.38082885742188	1.8933058977127075	-30.647624969482425	-309.58270263671875	-0.0	-0.0	-0.0	-0.0	-0.0	-0.0	89915.7265625	-25121.59375	3404.11474609375
0.006	-0.0	-0.0	-0.0	-7.170280933380127	22.786191940307617	-201.7805328369141	1.359808325767517	-30.67537879943848	-307.49285888671875	-0.0	-0.0	-0.0	-0.0	-0.0	-0.0	89408.375	-24608.126953125	3324.869140625
0.006500000000000001	-0.0	-0.0	-0.0	-6.307450294494629	22.634265899658203	-204.26214599609372	0.9758186340332032	-30.85174560546875	-307.49395751953125	-0.0	-0.0	-0.0	-0.0	-0.0	-0.0	89087.8515625	-24242.1015625	3157.186767578125
0.007	-0.0	-0.0	-0.0	-5.885374546051025	23.320777893066406	-205.2174835205078	0.6194085478782654	-30.649185180664062	-305.0380554199219	-0.0	-0.0	-0.0	-0.0	-0.0	-0.0	88547.8359375	-23485.08984375	3057.764892578125
0.0075	-0.0	-0.0	-0.0	-5.562513828277588	23.28671264648437	-207.08799743652344	0.3532084226608276	-30.3232364654541	-304.1239624023437	-0.0	-0.0	-0.0	-0.0	-0.0	-0.0	88219.4453125	-23230.28515625	2839.750244140625
0.008	-0.0	-0.0	-0.0	-4.759757995605469	24.00765037536621	-208.00083923339844	0.2914047241210937	-30.38265991210937	-303.0563659667969	-0.0	-0.0	-0.0	-0.0	-0.0	-0.0	87785.2578125	-22768.595703125	2820.872314453125
0.0085	-0.0	-0.0	-0.0	-4.046133041381836	24.666135787963867	-209.43569946289065	0.0597838908433914	-29.820087432861328	-301.9023132324219	-0.0	-0.0	-0.0	-0.0	-0.0	-0.0	87470.6640625	-22103.86328125	2573.239501953125
0.009000000000000001	-0.0	-0.0	-0.0	-3.1223678588867188	24.867382049560547	-210.01629638671875	0.0887107849121093	-29.6494197845459	-300.034912109375	-0.0	-0.0	-0.0	-0.0	-0.0	-0.0	87016.5625	-21751.033203125	2533.28564453125
0.0095	-0.0	-0.0	-0.0	-2.25894832611084	25.03934097290039	-212.0215301513672	0.0288377199321985	-29.647375106811523	-298.873779296875	-0.0	-0.0	-0.0	-0.0	-0.0	-0.0	86726.90625	-21329.87109375	2464.983154296875
0.01	-0.0	-0.0	-0.0	-0.8602246046066284	25.06464385986328	-210.835693359375	-0.1796804368495941	-29.329545974731445	-299.3363647460937	-0.0	-0.0	-0.0	-0.0	-0.0	-0.0	86356.4140625	-21050.423828125	2445.656982421875
0.0105	-0.0	-0.0	-0.0	0.0571910440921783	25.61583709716797	-212.71397399902344	0.0961089730262756	-29.353878021240234	-298.1658020019531	-0.0	-0.0	-0.0	-0.0	-0.0	-0.0	86226.515625	-20879.8046875	2308.056884765625
0.011	-0.0	-0.0	-0.0	1.3095914125442505	26.125734329223636	-212.7274169921875	-0.4748269021511078	-29.769493103027344	-296.8818664550781	-0.0	-0.0	-0.0	-0.0	-0.0	-0.0	86073.78125	-20470.1640625	2178.490478515625
0.0115	-0.0	-0.0	-0.0	2.0803840160369877	26.47530937194824	-211.7665863037109	-0.386162519454956	-29.58515167236328	-296.5633239746094	-0.0	-0.0	-0.0	-0.0	-0.0	-0.0	85818.71875	-20092.43359375	2185.594970703125
0.012	-0.0	-0.0	-0.0	3.524778366088867	26.08676147460937	-213.7865753173828	-0.6209754943847656	-29.67608642578125	-295.97906494140625	-0.0	-0.0	-0.0	-0.0	-0.0	-0.0	85605.9296875	-19874.689453125	2147.923095703125
0.0125	-0.0	-0.0	-0.0	4.338990211486816	26.378721237182617	-213.3206787109375	-0.5579415559768677	-29.97242927551269	-294.21075439453125	-0.0	-0.0	-0.0	-0.0	-0.0	-0.0	85420.859375	-19580.830078125	2108.676025390625
0.013000000000000001	-0.0	-0.0	-0.0	5.648651123046875	26.2894287109375	-214.3642120361328	-0.9758186340332032	-30.17759895324707	-294.3348388671875	-0.0	-0.0	-0.0	-0.0	-0.0	-0.0	85259.9765625	-19369.267578125	1987.6461181640625
0.0135	-0.0	-0.0	-0.0	6.475709915161133	26.35841941833496	-214.5253448486328	-1.1596184968948364	-30.02619743347168	-295.1578674316406	-0.0	-0.0	-0.0	-0.0	-0.0	-0.0	84827.84375	-19065.458984375	1919.711181640625
0.014	-0.0	-0.0	-0.0	7.456929683685303	26.2934684753418	-213.3206787109375	-1.536571025848389	-30.297571182250977	-292.3392333984375	-0.0	-0.0	-0.0	-0.0	-0.0	-0.0	84711.1484375	-18565.5234375	1761.528076171875
0.0145	-0.0	-0.0	-0.0	8.40963363647461	26.406423568725582	-212.76119995117188	-1.9835107326507568	-29.994199752807617	-292.3653564453125	-0.0	-0.0	-0.0	-0.0	-0.0	-0.0	84583.40625	-18555.08984375	1622.492919921875
0.015	-0.0	-0.0	-0.0	9.939638137817385	25.538671493530277	-214.7333984375	-2.2745392322540283	-30.234277725219727	-292.5053405761719	-0.0	-0.0	-0.0	-0.0	-0.0	-0.0	84340.5859375	-18222.15625	1521.3629150390625
0.0155	-0.0	-0.0	-0.0	10.770848274230955	25.6603946685791	-215.569580078125	-2.622100114822388	-30.262495040893555	-290.84332275390625	-0.0	-0.0	-0.0	-0.0	-0.0	-0.0	84005.5703125	-17771.69921875	1346.72021484375
